<mxfile host="app.diagrams.net" modified="2023-02-12T02:27:58.509Z" agent="5.0 (Windows NT 10.0; Win64; x64) AppleWebKit/537.36 (KHTML, like Gecko) Chrome/108.0.0.0 Safari/537.36" etag="koa3x_gGjPj_KURFuCMT" version="20.8.20" type="github">
  <diagram id="C5RBs43oDa-KdzZeNtuy" name="Page-1">
    <mxGraphModel dx="2333" dy="1220" grid="1" gridSize="10" guides="1" tooltips="1" connect="1" arrows="1" fold="1" page="1" pageScale="1" pageWidth="1600" pageHeight="900" math="0" shadow="0">
      <root>
        <mxCell id="WIyWlLk6GJQsqaUBKTNV-0" />
        <mxCell id="WIyWlLk6GJQsqaUBKTNV-1" parent="WIyWlLk6GJQsqaUBKTNV-0" />
        <mxCell id="jiN-6un6ZJRcJcwT6FA4-30" value="user" style="swimlane;fontStyle=1;align=center;verticalAlign=top;childLayout=stackLayout;horizontal=1;startSize=26;horizontalStack=0;resizeParent=1;resizeParentMax=0;resizeLast=0;collapsible=1;marginBottom=0;" vertex="1" parent="WIyWlLk6GJQsqaUBKTNV-1">
          <mxGeometry x="339.71" y="430" width="160" height="234" as="geometry">
            <mxRectangle x="70" y="50" width="70" height="30" as="alternateBounds" />
          </mxGeometry>
        </mxCell>
        <mxCell id="jiN-6un6ZJRcJcwT6FA4-31" value="+Â user_id(pk): string" style="text;strokeColor=none;fillColor=none;align=left;verticalAlign=top;spacingLeft=4;spacingRight=4;overflow=hidden;rotatable=0;points=[[0,0.5],[1,0.5]];portConstraint=eastwest;" vertex="1" parent="jiN-6un6ZJRcJcwT6FA4-30">
          <mxGeometry y="26" width="160" height="26" as="geometry" />
        </mxCell>
        <mxCell id="jiN-6un6ZJRcJcwT6FA4-34" value="+user_name: string" style="text;strokeColor=none;fillColor=none;align=left;verticalAlign=top;spacingLeft=4;spacingRight=4;overflow=hidden;rotatable=0;points=[[0,0.5],[1,0.5]];portConstraint=eastwest;" vertex="1" parent="jiN-6un6ZJRcJcwT6FA4-30">
          <mxGeometry y="52" width="160" height="26" as="geometry" />
        </mxCell>
        <mxCell id="jiN-6un6ZJRcJcwT6FA4-35" value="+user_birthday: datetime" style="text;strokeColor=none;fillColor=none;align=left;verticalAlign=top;spacingLeft=4;spacingRight=4;overflow=hidden;rotatable=0;points=[[0,0.5],[1,0.5]];portConstraint=eastwest;" vertex="1" parent="jiN-6un6ZJRcJcwT6FA4-30">
          <mxGeometry y="78" width="160" height="26" as="geometry" />
        </mxCell>
        <mxCell id="jiN-6un6ZJRcJcwT6FA4-36" value="+user_gender: char" style="text;strokeColor=none;fillColor=none;align=left;verticalAlign=top;spacingLeft=4;spacingRight=4;overflow=hidden;rotatable=0;points=[[0,0.5],[1,0.5]];portConstraint=eastwest;" vertex="1" parent="jiN-6un6ZJRcJcwT6FA4-30">
          <mxGeometry y="104" width="160" height="26" as="geometry" />
        </mxCell>
        <mxCell id="jiN-6un6ZJRcJcwT6FA4-37" value="+user_profile: string" style="text;strokeColor=none;fillColor=none;align=left;verticalAlign=top;spacingLeft=4;spacingRight=4;overflow=hidden;rotatable=0;points=[[0,0.5],[1,0.5]];portConstraint=eastwest;" vertex="1" parent="jiN-6un6ZJRcJcwT6FA4-30">
          <mxGeometry y="130" width="160" height="26" as="geometry" />
        </mxCell>
        <mxCell id="jiN-6un6ZJRcJcwT6FA4-94" value="+user_type: string" style="text;strokeColor=none;fillColor=none;align=left;verticalAlign=top;spacingLeft=4;spacingRight=4;overflow=hidden;rotatable=0;points=[[0,0.5],[1,0.5]];portConstraint=eastwest;" vertex="1" parent="jiN-6un6ZJRcJcwT6FA4-30">
          <mxGeometry y="156" width="160" height="26" as="geometry" />
        </mxCell>
        <mxCell id="jiN-6un6ZJRcJcwT6FA4-95" value="+login_type: string" style="text;strokeColor=none;fillColor=none;align=left;verticalAlign=top;spacingLeft=4;spacingRight=4;overflow=hidden;rotatable=0;points=[[0,0.5],[1,0.5]];portConstraint=eastwest;" vertex="1" parent="jiN-6un6ZJRcJcwT6FA4-30">
          <mxGeometry y="182" width="160" height="26" as="geometry" />
        </mxCell>
        <mxCell id="jiN-6un6ZJRcJcwT6FA4-38" value="+create_date: datetime" style="text;strokeColor=none;fillColor=none;align=left;verticalAlign=top;spacingLeft=4;spacingRight=4;overflow=hidden;rotatable=0;points=[[0,0.5],[1,0.5]];portConstraint=eastwest;" vertex="1" parent="jiN-6un6ZJRcJcwT6FA4-30">
          <mxGeometry y="208" width="160" height="26" as="geometry" />
        </mxCell>
        <mxCell id="jiN-6un6ZJRcJcwT6FA4-39" value="review" style="swimlane;fontStyle=1;align=center;verticalAlign=top;childLayout=stackLayout;horizontal=1;startSize=26;horizontalStack=0;resizeParent=1;resizeParentMax=0;resizeLast=0;collapsible=1;marginBottom=0;" vertex="1" parent="WIyWlLk6GJQsqaUBKTNV-1">
          <mxGeometry x="659.71" y="400" width="160" height="242" as="geometry">
            <mxRectangle x="390" y="20" width="80" height="30" as="alternateBounds" />
          </mxGeometry>
        </mxCell>
        <mxCell id="jiN-6un6ZJRcJcwT6FA4-40" value="+ review_id(pk): long" style="text;strokeColor=none;fillColor=none;align=left;verticalAlign=top;spacingLeft=4;spacingRight=4;overflow=hidden;rotatable=0;points=[[0,0.5],[1,0.5]];portConstraint=eastwest;" vertex="1" parent="jiN-6un6ZJRcJcwT6FA4-39">
          <mxGeometry y="26" width="160" height="26" as="geometry" />
        </mxCell>
        <mxCell id="jiN-6un6ZJRcJcwT6FA4-43" value="+ review_content: string" style="text;strokeColor=none;fillColor=none;align=left;verticalAlign=top;spacingLeft=4;spacingRight=4;overflow=hidden;rotatable=0;points=[[0,0.5],[1,0.5]];portConstraint=eastwest;" vertex="1" parent="jiN-6un6ZJRcJcwT6FA4-39">
          <mxGeometry y="52" width="160" height="26" as="geometry" />
        </mxCell>
        <mxCell id="jiN-6un6ZJRcJcwT6FA4-44" value="+ review_score: float" style="text;strokeColor=none;fillColor=none;align=left;verticalAlign=top;spacingLeft=4;spacingRight=4;overflow=hidden;rotatable=0;points=[[0,0.5],[1,0.5]];portConstraint=eastwest;" vertex="1" parent="jiN-6un6ZJRcJcwT6FA4-39">
          <mxGeometry y="78" width="160" height="26" as="geometry" />
        </mxCell>
        <mxCell id="jiN-6un6ZJRcJcwT6FA4-45" value="+ create_date: datetime" style="text;strokeColor=none;fillColor=none;align=left;verticalAlign=top;spacingLeft=4;spacingRight=4;overflow=hidden;rotatable=0;points=[[0,0.5],[1,0.5]];portConstraint=eastwest;" vertex="1" parent="jiN-6un6ZJRcJcwT6FA4-39">
          <mxGeometry y="104" width="160" height="26" as="geometry" />
        </mxCell>
        <mxCell id="jiN-6un6ZJRcJcwT6FA4-46" value="+ update_date: datetime" style="text;strokeColor=none;fillColor=none;align=left;verticalAlign=top;spacingLeft=4;spacingRight=4;overflow=hidden;rotatable=0;points=[[0,0.5],[1,0.5]];portConstraint=eastwest;" vertex="1" parent="jiN-6un6ZJRcJcwT6FA4-39">
          <mxGeometry y="130" width="160" height="26" as="geometry" />
        </mxCell>
        <mxCell id="jiN-6un6ZJRcJcwT6FA4-41" value="" style="line;strokeWidth=1;fillColor=none;align=left;verticalAlign=middle;spacingTop=-1;spacingLeft=3;spacingRight=3;rotatable=0;labelPosition=right;points=[];portConstraint=eastwest;strokeColor=inherit;" vertex="1" parent="jiN-6un6ZJRcJcwT6FA4-39">
          <mxGeometry y="156" width="160" height="8" as="geometry" />
        </mxCell>
        <mxCell id="jiN-6un6ZJRcJcwT6FA4-42" value="+ create_user_id: string" style="text;strokeColor=none;fillColor=none;align=left;verticalAlign=top;spacingLeft=4;spacingRight=4;overflow=hidden;rotatable=0;points=[[0,0.5],[1,0.5]];portConstraint=eastwest;" vertex="1" parent="jiN-6un6ZJRcJcwT6FA4-39">
          <mxGeometry y="164" width="160" height="26" as="geometry" />
        </mxCell>
        <mxCell id="jiN-6un6ZJRcJcwT6FA4-47" value="+ update_user_id: string" style="text;strokeColor=none;fillColor=none;align=left;verticalAlign=top;spacingLeft=4;spacingRight=4;overflow=hidden;rotatable=0;points=[[0,0.5],[1,0.5]];portConstraint=eastwest;" vertex="1" parent="jiN-6un6ZJRcJcwT6FA4-39">
          <mxGeometry y="190" width="160" height="26" as="geometry" />
        </mxCell>
        <mxCell id="jiN-6un6ZJRcJcwT6FA4-48" value="+ store_id: long" style="text;strokeColor=none;fillColor=none;align=left;verticalAlign=top;spacingLeft=4;spacingRight=4;overflow=hidden;rotatable=0;points=[[0,0.5],[1,0.5]];portConstraint=eastwest;" vertex="1" parent="jiN-6un6ZJRcJcwT6FA4-39">
          <mxGeometry y="216" width="160" height="26" as="geometry" />
        </mxCell>
        <mxCell id="jiN-6un6ZJRcJcwT6FA4-52" value="Relation" style="endArrow=open;html=1;endSize=12;startArrow=diamondThin;startSize=14;startFill=0;edgeStyle=orthogonalEdgeStyle;rounded=0;entryX=1;entryY=0.5;entryDx=0;entryDy=0;exitX=0;exitY=0.5;exitDx=0;exitDy=0;" edge="1" parent="WIyWlLk6GJQsqaUBKTNV-1" source="jiN-6un6ZJRcJcwT6FA4-45" target="jiN-6un6ZJRcJcwT6FA4-35">
          <mxGeometry relative="1" as="geometry">
            <mxPoint x="539.71" y="560" as="sourcePoint" />
            <mxPoint x="699.71" y="560" as="targetPoint" />
          </mxGeometry>
        </mxCell>
        <mxCell id="jiN-6un6ZJRcJcwT6FA4-53" value="0..n" style="edgeLabel;resizable=0;html=1;align=left;verticalAlign=top;" connectable="0" vertex="1" parent="jiN-6un6ZJRcJcwT6FA4-52">
          <mxGeometry x="-1" relative="1" as="geometry">
            <mxPoint x="-40" as="offset" />
          </mxGeometry>
        </mxCell>
        <mxCell id="jiN-6un6ZJRcJcwT6FA4-54" value="1" style="edgeLabel;resizable=0;html=1;align=right;verticalAlign=top;" connectable="0" vertex="1" parent="jiN-6un6ZJRcJcwT6FA4-52">
          <mxGeometry x="1" relative="1" as="geometry">
            <mxPoint x="30" y="-25" as="offset" />
          </mxGeometry>
        </mxCell>
        <mxCell id="jiN-6un6ZJRcJcwT6FA4-57" value="review_like" style="swimlane;fontStyle=1;align=center;verticalAlign=top;childLayout=stackLayout;horizontal=1;startSize=26;horizontalStack=0;resizeParent=1;resizeParentMax=0;resizeLast=0;collapsible=1;marginBottom=0;" vertex="1" parent="WIyWlLk6GJQsqaUBKTNV-1">
          <mxGeometry x="450" y="780" width="160" height="138" as="geometry" />
        </mxCell>
        <mxCell id="jiN-6un6ZJRcJcwT6FA4-58" value="+ review_like_id(pk): long" style="text;strokeColor=none;fillColor=none;align=left;verticalAlign=top;spacingLeft=4;spacingRight=4;overflow=hidden;rotatable=0;points=[[0,0.5],[1,0.5]];portConstraint=eastwest;" vertex="1" parent="jiN-6un6ZJRcJcwT6FA4-57">
          <mxGeometry y="26" width="160" height="26" as="geometry" />
        </mxCell>
        <mxCell id="jiN-6un6ZJRcJcwT6FA4-63" value="+create_date: datetime" style="text;strokeColor=none;fillColor=none;align=left;verticalAlign=top;spacingLeft=4;spacingRight=4;overflow=hidden;rotatable=0;points=[[0,0.5],[1,0.5]];portConstraint=eastwest;" vertex="1" parent="jiN-6un6ZJRcJcwT6FA4-57">
          <mxGeometry y="52" width="160" height="26" as="geometry" />
        </mxCell>
        <mxCell id="jiN-6un6ZJRcJcwT6FA4-59" value="" style="line;strokeWidth=1;fillColor=none;align=left;verticalAlign=middle;spacingTop=-1;spacingLeft=3;spacingRight=3;rotatable=0;labelPosition=right;points=[];portConstraint=eastwest;strokeColor=inherit;" vertex="1" parent="jiN-6un6ZJRcJcwT6FA4-57">
          <mxGeometry y="78" width="160" height="8" as="geometry" />
        </mxCell>
        <mxCell id="jiN-6un6ZJRcJcwT6FA4-60" value="+ user_id: string" style="text;strokeColor=none;fillColor=none;align=left;verticalAlign=top;spacingLeft=4;spacingRight=4;overflow=hidden;rotatable=0;points=[[0,0.5],[1,0.5]];portConstraint=eastwest;" vertex="1" parent="jiN-6un6ZJRcJcwT6FA4-57">
          <mxGeometry y="86" width="160" height="26" as="geometry" />
        </mxCell>
        <mxCell id="jiN-6un6ZJRcJcwT6FA4-64" value="+ review_id: long" style="text;strokeColor=none;fillColor=none;align=left;verticalAlign=top;spacingLeft=4;spacingRight=4;overflow=hidden;rotatable=0;points=[[0,0.5],[1,0.5]];portConstraint=eastwest;" vertex="1" parent="jiN-6un6ZJRcJcwT6FA4-57">
          <mxGeometry y="112" width="160" height="26" as="geometry" />
        </mxCell>
        <mxCell id="jiN-6un6ZJRcJcwT6FA4-70" value="Relation" style="endArrow=open;html=1;endSize=12;startArrow=diamondThin;startSize=14;startFill=0;edgeStyle=orthogonalEdgeStyle;rounded=0;exitX=0;exitY=0.5;exitDx=0;exitDy=0;" edge="1" parent="WIyWlLk6GJQsqaUBKTNV-1" source="jiN-6un6ZJRcJcwT6FA4-63" target="jiN-6un6ZJRcJcwT6FA4-38">
          <mxGeometry relative="1" as="geometry">
            <mxPoint x="430.28999999999996" y="854" as="sourcePoint" />
            <mxPoint x="420" y="680" as="targetPoint" />
            <Array as="points">
              <mxPoint x="360" y="845" />
            </Array>
          </mxGeometry>
        </mxCell>
        <mxCell id="jiN-6un6ZJRcJcwT6FA4-71" value="0..n" style="edgeLabel;resizable=0;html=1;align=left;verticalAlign=top;" connectable="0" vertex="1" parent="jiN-6un6ZJRcJcwT6FA4-70">
          <mxGeometry x="-1" relative="1" as="geometry">
            <mxPoint x="-30" y="-35" as="offset" />
          </mxGeometry>
        </mxCell>
        <mxCell id="jiN-6un6ZJRcJcwT6FA4-72" value="1" style="edgeLabel;resizable=0;html=1;align=right;verticalAlign=top;" connectable="0" vertex="1" parent="jiN-6un6ZJRcJcwT6FA4-70">
          <mxGeometry x="1" relative="1" as="geometry">
            <mxPoint x="10" y="6" as="offset" />
          </mxGeometry>
        </mxCell>
        <mxCell id="jiN-6un6ZJRcJcwT6FA4-73" value="Relation" style="endArrow=open;html=1;endSize=12;startArrow=diamondThin;startSize=14;startFill=0;edgeStyle=orthogonalEdgeStyle;rounded=0;exitX=1;exitY=0.5;exitDx=0;exitDy=0;" edge="1" parent="WIyWlLk6GJQsqaUBKTNV-1" source="jiN-6un6ZJRcJcwT6FA4-60" target="jiN-6un6ZJRcJcwT6FA4-48">
          <mxGeometry relative="1" as="geometry">
            <mxPoint x="450" y="730" as="sourcePoint" />
            <mxPoint x="750" y="645" as="targetPoint" />
          </mxGeometry>
        </mxCell>
        <mxCell id="jiN-6un6ZJRcJcwT6FA4-74" value="0..n" style="edgeLabel;resizable=0;html=1;align=left;verticalAlign=top;" connectable="0" vertex="1" parent="jiN-6un6ZJRcJcwT6FA4-73">
          <mxGeometry x="-1" relative="1" as="geometry">
            <mxPoint x="20" y="-29" as="offset" />
          </mxGeometry>
        </mxCell>
        <mxCell id="jiN-6un6ZJRcJcwT6FA4-75" value="1" style="edgeLabel;resizable=0;html=1;align=right;verticalAlign=top;" connectable="0" vertex="1" parent="jiN-6un6ZJRcJcwT6FA4-73">
          <mxGeometry x="1" relative="1" as="geometry">
            <mxPoint x="20" y="15" as="offset" />
          </mxGeometry>
        </mxCell>
        <mxCell id="jiN-6un6ZJRcJcwT6FA4-77" value="review_photo" style="swimlane;fontStyle=1;align=center;verticalAlign=top;childLayout=stackLayout;horizontal=1;startSize=26;horizontalStack=0;resizeParent=1;resizeParentMax=0;resizeLast=0;collapsible=1;marginBottom=0;" vertex="1" parent="WIyWlLk6GJQsqaUBKTNV-1">
          <mxGeometry x="980" y="452" width="160" height="164" as="geometry" />
        </mxCell>
        <mxCell id="jiN-6un6ZJRcJcwT6FA4-78" value="+Â review_photo_id(pk): long" style="text;strokeColor=none;fillColor=none;align=left;verticalAlign=top;spacingLeft=4;spacingRight=4;overflow=hidden;rotatable=0;points=[[0,0.5],[1,0.5]];portConstraint=eastwest;" vertex="1" parent="jiN-6un6ZJRcJcwT6FA4-77">
          <mxGeometry y="26" width="160" height="26" as="geometry" />
        </mxCell>
        <mxCell id="jiN-6un6ZJRcJcwT6FA4-81" value="+Â review_photo_url: string" style="text;strokeColor=none;fillColor=none;align=left;verticalAlign=top;spacingLeft=4;spacingRight=4;overflow=hidden;rotatable=0;points=[[0,0.5],[1,0.5]];portConstraint=eastwest;" vertex="1" parent="jiN-6un6ZJRcJcwT6FA4-77">
          <mxGeometry y="52" width="160" height="26" as="geometry" />
        </mxCell>
        <mxCell id="jiN-6un6ZJRcJcwT6FA4-82" value="+ create_date: datetime" style="text;strokeColor=none;fillColor=none;align=left;verticalAlign=top;spacingLeft=4;spacingRight=4;overflow=hidden;rotatable=0;points=[[0,0.5],[1,0.5]];portConstraint=eastwest;" vertex="1" parent="jiN-6un6ZJRcJcwT6FA4-77">
          <mxGeometry y="78" width="160" height="26" as="geometry" />
        </mxCell>
        <mxCell id="jiN-6un6ZJRcJcwT6FA4-79" value="" style="line;strokeWidth=1;fillColor=none;align=left;verticalAlign=middle;spacingTop=-1;spacingLeft=3;spacingRight=3;rotatable=0;labelPosition=right;points=[];portConstraint=eastwest;strokeColor=inherit;" vertex="1" parent="jiN-6un6ZJRcJcwT6FA4-77">
          <mxGeometry y="104" width="160" height="8" as="geometry" />
        </mxCell>
        <mxCell id="jiN-6un6ZJRcJcwT6FA4-80" value="+ review_id: long" style="text;strokeColor=none;fillColor=none;align=left;verticalAlign=top;spacingLeft=4;spacingRight=4;overflow=hidden;rotatable=0;points=[[0,0.5],[1,0.5]];portConstraint=eastwest;" vertex="1" parent="jiN-6un6ZJRcJcwT6FA4-77">
          <mxGeometry y="112" width="160" height="26" as="geometry" />
        </mxCell>
        <mxCell id="jiN-6un6ZJRcJcwT6FA4-136" value="+ create_user_id: string" style="text;strokeColor=none;fillColor=none;align=left;verticalAlign=top;spacingLeft=4;spacingRight=4;overflow=hidden;rotatable=0;points=[[0,0.5],[1,0.5]];portConstraint=eastwest;" vertex="1" parent="jiN-6un6ZJRcJcwT6FA4-77">
          <mxGeometry y="138" width="160" height="26" as="geometry" />
        </mxCell>
        <mxCell id="jiN-6un6ZJRcJcwT6FA4-83" value="Relation" style="endArrow=open;html=1;endSize=12;startArrow=diamondThin;startSize=14;startFill=0;edgeStyle=orthogonalEdgeStyle;rounded=0;entryX=1;entryY=0.5;entryDx=0;entryDy=0;exitX=0;exitY=0.5;exitDx=0;exitDy=0;" edge="1" parent="WIyWlLk6GJQsqaUBKTNV-1" source="jiN-6un6ZJRcJcwT6FA4-81" target="jiN-6un6ZJRcJcwT6FA4-45">
          <mxGeometry relative="1" as="geometry">
            <mxPoint x="620" y="630" as="sourcePoint" />
            <mxPoint x="780" y="630" as="targetPoint" />
          </mxGeometry>
        </mxCell>
        <mxCell id="jiN-6un6ZJRcJcwT6FA4-84" value="0..n" style="edgeLabel;resizable=0;html=1;align=left;verticalAlign=top;" connectable="0" vertex="1" parent="jiN-6un6ZJRcJcwT6FA4-83">
          <mxGeometry x="-1" relative="1" as="geometry">
            <mxPoint x="-30" y="-25" as="offset" />
          </mxGeometry>
        </mxCell>
        <mxCell id="jiN-6un6ZJRcJcwT6FA4-85" value="1" style="edgeLabel;resizable=0;html=1;align=right;verticalAlign=top;" connectable="0" vertex="1" parent="jiN-6un6ZJRcJcwT6FA4-83">
          <mxGeometry x="1" relative="1" as="geometry" />
        </mxCell>
        <mxCell id="jiN-6un6ZJRcJcwT6FA4-86" value="store" style="swimlane;fontStyle=1;align=center;verticalAlign=top;childLayout=stackLayout;horizontal=1;startSize=26;horizontalStack=0;resizeParent=1;resizeParentMax=0;resizeLast=0;collapsible=1;marginBottom=0;" vertex="1" parent="WIyWlLk6GJQsqaUBKTNV-1">
          <mxGeometry x="667" y="910" width="160" height="268" as="geometry" />
        </mxCell>
        <mxCell id="jiN-6un6ZJRcJcwT6FA4-87" value="+ store_id(pk): long" style="text;strokeColor=none;fillColor=none;align=left;verticalAlign=top;spacingLeft=4;spacingRight=4;overflow=hidden;rotatable=0;points=[[0,0.5],[1,0.5]];portConstraint=eastwest;" vertex="1" parent="jiN-6un6ZJRcJcwT6FA4-86">
          <mxGeometry y="26" width="160" height="26" as="geometry" />
        </mxCell>
        <mxCell id="jiN-6un6ZJRcJcwT6FA4-90" value="+ store_name: string" style="text;strokeColor=none;fillColor=none;align=left;verticalAlign=top;spacingLeft=4;spacingRight=4;overflow=hidden;rotatable=0;points=[[0,0.5],[1,0.5]];portConstraint=eastwest;" vertex="1" parent="jiN-6un6ZJRcJcwT6FA4-86">
          <mxGeometry y="52" width="160" height="26" as="geometry" />
        </mxCell>
        <mxCell id="jiN-6un6ZJRcJcwT6FA4-91" value="+ store_address: string" style="text;strokeColor=none;fillColor=none;align=left;verticalAlign=top;spacingLeft=4;spacingRight=4;overflow=hidden;rotatable=0;points=[[0,0.5],[1,0.5]];portConstraint=eastwest;" vertex="1" parent="jiN-6un6ZJRcJcwT6FA4-86">
          <mxGeometry y="78" width="160" height="26" as="geometry" />
        </mxCell>
        <mxCell id="jiN-6un6ZJRcJcwT6FA4-92" value="+ store_number: string" style="text;strokeColor=none;fillColor=none;align=left;verticalAlign=top;spacingLeft=4;spacingRight=4;overflow=hidden;rotatable=0;points=[[0,0.5],[1,0.5]];portConstraint=eastwest;" vertex="1" parent="jiN-6un6ZJRcJcwT6FA4-86">
          <mxGeometry y="104" width="160" height="26" as="geometry" />
        </mxCell>
        <mxCell id="jiN-6un6ZJRcJcwT6FA4-93" value="+ store_number: string" style="text;strokeColor=none;fillColor=none;align=left;verticalAlign=top;spacingLeft=4;spacingRight=4;overflow=hidden;rotatable=0;points=[[0,0.5],[1,0.5]];portConstraint=eastwest;" vertex="1" parent="jiN-6un6ZJRcJcwT6FA4-86">
          <mxGeometry y="130" width="160" height="26" as="geometry" />
        </mxCell>
        <mxCell id="jiN-6un6ZJRcJcwT6FA4-116" value="+ create_date: datetime" style="text;strokeColor=none;fillColor=none;align=left;verticalAlign=top;spacingLeft=4;spacingRight=4;overflow=hidden;rotatable=0;points=[[0,0.5],[1,0.5]];portConstraint=eastwest;" vertex="1" parent="jiN-6un6ZJRcJcwT6FA4-86">
          <mxGeometry y="156" width="160" height="26" as="geometry" />
        </mxCell>
        <mxCell id="jiN-6un6ZJRcJcwT6FA4-117" value="+ update_date: datetime" style="text;strokeColor=none;fillColor=none;align=left;verticalAlign=top;spacingLeft=4;spacingRight=4;overflow=hidden;rotatable=0;points=[[0,0.5],[1,0.5]];portConstraint=eastwest;" vertex="1" parent="jiN-6un6ZJRcJcwT6FA4-86">
          <mxGeometry y="182" width="160" height="26" as="geometry" />
        </mxCell>
        <mxCell id="jiN-6un6ZJRcJcwT6FA4-88" value="" style="line;strokeWidth=1;fillColor=none;align=left;verticalAlign=middle;spacingTop=-1;spacingLeft=3;spacingRight=3;rotatable=0;labelPosition=right;points=[];portConstraint=eastwest;strokeColor=inherit;" vertex="1" parent="jiN-6un6ZJRcJcwT6FA4-86">
          <mxGeometry y="208" width="160" height="8" as="geometry" />
        </mxCell>
        <mxCell id="jiN-6un6ZJRcJcwT6FA4-89" value="+ create_user_id: string" style="text;strokeColor=none;fillColor=none;align=left;verticalAlign=top;spacingLeft=4;spacingRight=4;overflow=hidden;rotatable=0;points=[[0,0.5],[1,0.5]];portConstraint=eastwest;" vertex="1" parent="jiN-6un6ZJRcJcwT6FA4-86">
          <mxGeometry y="216" width="160" height="26" as="geometry" />
        </mxCell>
        <mxCell id="jiN-6un6ZJRcJcwT6FA4-118" value="+ update_user_id: string" style="text;strokeColor=none;fillColor=none;align=left;verticalAlign=top;spacingLeft=4;spacingRight=4;overflow=hidden;rotatable=0;points=[[0,0.5],[1,0.5]];portConstraint=eastwest;" vertex="1" parent="jiN-6un6ZJRcJcwT6FA4-86">
          <mxGeometry y="242" width="160" height="26" as="geometry" />
        </mxCell>
        <mxCell id="jiN-6un6ZJRcJcwT6FA4-101" value="Relation" style="endArrow=open;html=1;endSize=12;startArrow=diamondThin;startSize=14;startFill=0;edgeStyle=orthogonalEdgeStyle;rounded=0;entryX=0.5;entryY=0;entryDx=0;entryDy=0;exitX=0.493;exitY=0.974;exitDx=0;exitDy=0;exitPerimeter=0;" edge="1" parent="WIyWlLk6GJQsqaUBKTNV-1" source="jiN-6un6ZJRcJcwT6FA4-48" target="jiN-6un6ZJRcJcwT6FA4-86">
          <mxGeometry relative="1" as="geometry">
            <mxPoint x="400" y="750" as="sourcePoint" />
            <mxPoint x="560" y="750" as="targetPoint" />
          </mxGeometry>
        </mxCell>
        <mxCell id="jiN-6un6ZJRcJcwT6FA4-102" value="0..n" style="edgeLabel;resizable=0;html=1;align=left;verticalAlign=top;" connectable="0" vertex="1" parent="jiN-6un6ZJRcJcwT6FA4-101">
          <mxGeometry x="-1" relative="1" as="geometry" />
        </mxCell>
        <mxCell id="jiN-6un6ZJRcJcwT6FA4-103" value="1" style="edgeLabel;resizable=0;html=1;align=right;verticalAlign=top;" connectable="0" vertex="1" parent="jiN-6un6ZJRcJcwT6FA4-101">
          <mxGeometry x="1" relative="1" as="geometry" />
        </mxCell>
        <mxCell id="jiN-6un6ZJRcJcwT6FA4-104" value="wishlist" style="swimlane;fontStyle=1;align=center;verticalAlign=top;childLayout=stackLayout;horizontal=1;startSize=26;horizontalStack=0;resizeParent=1;resizeParentMax=0;resizeLast=0;collapsible=1;marginBottom=0;" vertex="1" parent="WIyWlLk6GJQsqaUBKTNV-1">
          <mxGeometry x="200" y="930" width="160" height="138" as="geometry" />
        </mxCell>
        <mxCell id="jiN-6un6ZJRcJcwT6FA4-105" value="+ wishlist_id(pk): long" style="text;strokeColor=none;fillColor=none;align=left;verticalAlign=top;spacingLeft=4;spacingRight=4;overflow=hidden;rotatable=0;points=[[0,0.5],[1,0.5]];portConstraint=eastwest;" vertex="1" parent="jiN-6un6ZJRcJcwT6FA4-104">
          <mxGeometry y="26" width="160" height="26" as="geometry" />
        </mxCell>
        <mxCell id="jiN-6un6ZJRcJcwT6FA4-108" value="+create_date: datetime" style="text;strokeColor=none;fillColor=none;align=left;verticalAlign=top;spacingLeft=4;spacingRight=4;overflow=hidden;rotatable=0;points=[[0,0.5],[1,0.5]];portConstraint=eastwest;" vertex="1" parent="jiN-6un6ZJRcJcwT6FA4-104">
          <mxGeometry y="52" width="160" height="26" as="geometry" />
        </mxCell>
        <mxCell id="jiN-6un6ZJRcJcwT6FA4-106" value="" style="line;strokeWidth=1;fillColor=none;align=left;verticalAlign=middle;spacingTop=-1;spacingLeft=3;spacingRight=3;rotatable=0;labelPosition=right;points=[];portConstraint=eastwest;strokeColor=inherit;" vertex="1" parent="jiN-6un6ZJRcJcwT6FA4-104">
          <mxGeometry y="78" width="160" height="8" as="geometry" />
        </mxCell>
        <mxCell id="jiN-6un6ZJRcJcwT6FA4-107" value="+ user_id: string" style="text;strokeColor=none;fillColor=none;align=left;verticalAlign=top;spacingLeft=4;spacingRight=4;overflow=hidden;rotatable=0;points=[[0,0.5],[1,0.5]];portConstraint=eastwest;" vertex="1" parent="jiN-6un6ZJRcJcwT6FA4-104">
          <mxGeometry y="86" width="160" height="26" as="geometry" />
        </mxCell>
        <mxCell id="jiN-6un6ZJRcJcwT6FA4-109" value="+ store_id: long" style="text;strokeColor=none;fillColor=none;align=left;verticalAlign=top;spacingLeft=4;spacingRight=4;overflow=hidden;rotatable=0;points=[[0,0.5],[1,0.5]];portConstraint=eastwest;" vertex="1" parent="jiN-6un6ZJRcJcwT6FA4-104">
          <mxGeometry y="112" width="160" height="26" as="geometry" />
        </mxCell>
        <mxCell id="jiN-6un6ZJRcJcwT6FA4-110" value="Relation" style="endArrow=open;html=1;endSize=12;startArrow=diamondThin;startSize=14;startFill=0;edgeStyle=orthogonalEdgeStyle;rounded=0;entryX=-0.01;entryY=0.22;entryDx=0;entryDy=0;entryPerimeter=0;exitX=0.5;exitY=0;exitDx=0;exitDy=0;" edge="1" parent="WIyWlLk6GJQsqaUBKTNV-1" source="jiN-6un6ZJRcJcwT6FA4-104" target="jiN-6un6ZJRcJcwT6FA4-95">
          <mxGeometry relative="1" as="geometry">
            <mxPoint x="350" y="790" as="sourcePoint" />
            <mxPoint x="510" y="790" as="targetPoint" />
          </mxGeometry>
        </mxCell>
        <mxCell id="jiN-6un6ZJRcJcwT6FA4-111" value="0..n" style="edgeLabel;resizable=0;html=1;align=left;verticalAlign=top;rotation=-90;" connectable="0" vertex="1" parent="jiN-6un6ZJRcJcwT6FA4-110">
          <mxGeometry x="-1" relative="1" as="geometry">
            <mxPoint x="-20" y="-20" as="offset" />
          </mxGeometry>
        </mxCell>
        <mxCell id="jiN-6un6ZJRcJcwT6FA4-112" value="1" style="edgeLabel;resizable=0;html=1;align=right;verticalAlign=top;" connectable="0" vertex="1" parent="jiN-6un6ZJRcJcwT6FA4-110">
          <mxGeometry x="1" relative="1" as="geometry">
            <mxPoint x="-19" y="-22" as="offset" />
          </mxGeometry>
        </mxCell>
        <mxCell id="jiN-6un6ZJRcJcwT6FA4-113" value="Relation" style="endArrow=open;html=1;endSize=12;startArrow=diamondThin;startSize=14;startFill=0;edgeStyle=orthogonalEdgeStyle;rounded=0;entryX=0;entryY=0.5;entryDx=0;entryDy=0;exitX=1.004;exitY=-0.045;exitDx=0;exitDy=0;exitPerimeter=0;" edge="1" parent="WIyWlLk6GJQsqaUBKTNV-1" source="jiN-6un6ZJRcJcwT6FA4-107" target="jiN-6un6ZJRcJcwT6FA4-91">
          <mxGeometry relative="1" as="geometry">
            <mxPoint x="350" y="1070" as="sourcePoint" />
            <mxPoint x="510" y="1070" as="targetPoint" />
          </mxGeometry>
        </mxCell>
        <mxCell id="jiN-6un6ZJRcJcwT6FA4-114" value="0..n" style="edgeLabel;resizable=0;html=1;align=left;verticalAlign=top;" connectable="0" vertex="1" parent="jiN-6un6ZJRcJcwT6FA4-113">
          <mxGeometry x="-1" relative="1" as="geometry" />
        </mxCell>
        <mxCell id="jiN-6un6ZJRcJcwT6FA4-115" value="1" style="edgeLabel;resizable=0;html=1;align=right;verticalAlign=top;" connectable="0" vertex="1" parent="jiN-6un6ZJRcJcwT6FA4-113">
          <mxGeometry x="1" relative="1" as="geometry" />
        </mxCell>
        <mxCell id="jiN-6un6ZJRcJcwT6FA4-119" value="jmt" style="swimlane;fontStyle=1;align=center;verticalAlign=top;childLayout=stackLayout;horizontal=1;startSize=26;horizontalStack=0;resizeParent=1;resizeParentMax=0;resizeLast=0;collapsible=1;marginBottom=0;" vertex="1" parent="WIyWlLk6GJQsqaUBKTNV-1">
          <mxGeometry x="1410" y="530" width="160" height="216" as="geometry" />
        </mxCell>
        <mxCell id="jiN-6un6ZJRcJcwT6FA4-120" value="+ jmt_id(pk): long" style="text;strokeColor=none;fillColor=none;align=left;verticalAlign=top;spacingLeft=4;spacingRight=4;overflow=hidden;rotatable=0;points=[[0,0.5],[1,0.5]];portConstraint=eastwest;" vertex="1" parent="jiN-6un6ZJRcJcwT6FA4-119">
          <mxGeometry y="26" width="160" height="26" as="geometry" />
        </mxCell>
        <mxCell id="jiN-6un6ZJRcJcwT6FA4-123" value="+ jmt_name: string" style="text;strokeColor=none;fillColor=none;align=left;verticalAlign=top;spacingLeft=4;spacingRight=4;overflow=hidden;rotatable=0;points=[[0,0.5],[1,0.5]];portConstraint=eastwest;" vertex="1" parent="jiN-6un6ZJRcJcwT6FA4-119">
          <mxGeometry y="52" width="160" height="26" as="geometry" />
        </mxCell>
        <mxCell id="jiN-6un6ZJRcJcwT6FA4-126" value="+ create_date: datetime" style="text;strokeColor=none;fillColor=none;align=left;verticalAlign=top;spacingLeft=4;spacingRight=4;overflow=hidden;rotatable=0;points=[[0,0.5],[1,0.5]];portConstraint=eastwest;" vertex="1" parent="jiN-6un6ZJRcJcwT6FA4-119">
          <mxGeometry y="78" width="160" height="26" as="geometry" />
        </mxCell>
        <mxCell id="jiN-6un6ZJRcJcwT6FA4-127" value="+ update_date: datetime" style="text;strokeColor=none;fillColor=none;align=left;verticalAlign=top;spacingLeft=4;spacingRight=4;overflow=hidden;rotatable=0;points=[[0,0.5],[1,0.5]];portConstraint=eastwest;" vertex="1" parent="jiN-6un6ZJRcJcwT6FA4-119">
          <mxGeometry y="104" width="160" height="26" as="geometry" />
        </mxCell>
        <mxCell id="jiN-6un6ZJRcJcwT6FA4-121" value="" style="line;strokeWidth=1;fillColor=none;align=left;verticalAlign=middle;spacingTop=-1;spacingLeft=3;spacingRight=3;rotatable=0;labelPosition=right;points=[];portConstraint=eastwest;strokeColor=inherit;" vertex="1" parent="jiN-6un6ZJRcJcwT6FA4-119">
          <mxGeometry y="130" width="160" height="8" as="geometry" />
        </mxCell>
        <mxCell id="jiN-6un6ZJRcJcwT6FA4-122" value="+ create_user_id: string" style="text;strokeColor=none;fillColor=none;align=left;verticalAlign=top;spacingLeft=4;spacingRight=4;overflow=hidden;rotatable=0;points=[[0,0.5],[1,0.5]];portConstraint=eastwest;" vertex="1" parent="jiN-6un6ZJRcJcwT6FA4-119">
          <mxGeometry y="138" width="160" height="26" as="geometry" />
        </mxCell>
        <mxCell id="jiN-6un6ZJRcJcwT6FA4-125" value="+ create_user_id: string" style="text;strokeColor=none;fillColor=none;align=left;verticalAlign=top;spacingLeft=4;spacingRight=4;overflow=hidden;rotatable=0;points=[[0,0.5],[1,0.5]];portConstraint=eastwest;" vertex="1" parent="jiN-6un6ZJRcJcwT6FA4-119">
          <mxGeometry y="164" width="160" height="26" as="geometry" />
        </mxCell>
        <mxCell id="jiN-6un6ZJRcJcwT6FA4-135" value="+ store_photo_id: long" style="text;strokeColor=none;fillColor=none;align=left;verticalAlign=top;spacingLeft=4;spacingRight=4;overflow=hidden;rotatable=0;points=[[0,0.5],[1,0.5]];portConstraint=eastwest;" vertex="1" parent="jiN-6un6ZJRcJcwT6FA4-119">
          <mxGeometry y="190" width="160" height="26" as="geometry" />
        </mxCell>
        <mxCell id="jiN-6un6ZJRcJcwT6FA4-128" value="store_photo" style="swimlane;fontStyle=1;align=center;verticalAlign=top;childLayout=stackLayout;horizontal=1;startSize=26;horizontalStack=0;resizeParent=1;resizeParentMax=0;resizeLast=0;collapsible=1;marginBottom=0;" vertex="1" parent="WIyWlLk6GJQsqaUBKTNV-1">
          <mxGeometry x="1210" y="930" width="160" height="164" as="geometry" />
        </mxCell>
        <mxCell id="jiN-6un6ZJRcJcwT6FA4-129" value="+ store_photo_id(pk): long" style="text;strokeColor=none;fillColor=none;align=left;verticalAlign=top;spacingLeft=4;spacingRight=4;overflow=hidden;rotatable=0;points=[[0,0.5],[1,0.5]];portConstraint=eastwest;" vertex="1" parent="jiN-6un6ZJRcJcwT6FA4-128">
          <mxGeometry y="26" width="160" height="26" as="geometry" />
        </mxCell>
        <mxCell id="jiN-6un6ZJRcJcwT6FA4-132" value="+ store_photo_url: string" style="text;strokeColor=none;fillColor=none;align=left;verticalAlign=top;spacingLeft=4;spacingRight=4;overflow=hidden;rotatable=0;points=[[0,0.5],[1,0.5]];portConstraint=eastwest;" vertex="1" parent="jiN-6un6ZJRcJcwT6FA4-128">
          <mxGeometry y="52" width="160" height="26" as="geometry" />
        </mxCell>
        <mxCell id="jiN-6un6ZJRcJcwT6FA4-134" value="+ create_date: datetime" style="text;strokeColor=none;fillColor=none;align=left;verticalAlign=top;spacingLeft=4;spacingRight=4;overflow=hidden;rotatable=0;points=[[0,0.5],[1,0.5]];portConstraint=eastwest;" vertex="1" parent="jiN-6un6ZJRcJcwT6FA4-128">
          <mxGeometry y="78" width="160" height="26" as="geometry" />
        </mxCell>
        <mxCell id="jiN-6un6ZJRcJcwT6FA4-130" value="" style="line;strokeWidth=1;fillColor=none;align=left;verticalAlign=middle;spacingTop=-1;spacingLeft=3;spacingRight=3;rotatable=0;labelPosition=right;points=[];portConstraint=eastwest;strokeColor=inherit;" vertex="1" parent="jiN-6un6ZJRcJcwT6FA4-128">
          <mxGeometry y="104" width="160" height="8" as="geometry" />
        </mxCell>
        <mxCell id="jiN-6un6ZJRcJcwT6FA4-131" value="+ store_id: long" style="text;strokeColor=none;fillColor=none;align=left;verticalAlign=top;spacingLeft=4;spacingRight=4;overflow=hidden;rotatable=0;points=[[0,0.5],[1,0.5]];portConstraint=eastwest;" vertex="1" parent="jiN-6un6ZJRcJcwT6FA4-128">
          <mxGeometry y="112" width="160" height="26" as="geometry" />
        </mxCell>
        <mxCell id="jiN-6un6ZJRcJcwT6FA4-137" value="+ create_user_id: string" style="text;strokeColor=none;fillColor=none;align=left;verticalAlign=top;spacingLeft=4;spacingRight=4;overflow=hidden;rotatable=0;points=[[0,0.5],[1,0.5]];portConstraint=eastwest;" vertex="1" parent="jiN-6un6ZJRcJcwT6FA4-128">
          <mxGeometry y="138" width="160" height="26" as="geometry" />
        </mxCell>
        <mxCell id="jiN-6un6ZJRcJcwT6FA4-138" value="Relation" style="endArrow=open;html=1;endSize=12;startArrow=diamondThin;startSize=14;startFill=0;edgeStyle=orthogonalEdgeStyle;rounded=0;entryX=1;entryY=0.5;entryDx=0;entryDy=0;exitX=0;exitY=0.5;exitDx=0;exitDy=0;" edge="1" parent="WIyWlLk6GJQsqaUBKTNV-1" source="jiN-6un6ZJRcJcwT6FA4-132" target="jiN-6un6ZJRcJcwT6FA4-91">
          <mxGeometry relative="1" as="geometry">
            <mxPoint x="440" y="820" as="sourcePoint" />
            <mxPoint x="600" y="820" as="targetPoint" />
          </mxGeometry>
        </mxCell>
        <mxCell id="jiN-6un6ZJRcJcwT6FA4-139" value="0..n" style="edgeLabel;resizable=0;html=1;align=left;verticalAlign=top;" connectable="0" vertex="1" parent="jiN-6un6ZJRcJcwT6FA4-138">
          <mxGeometry x="-1" relative="1" as="geometry">
            <mxPoint x="-30" as="offset" />
          </mxGeometry>
        </mxCell>
        <mxCell id="jiN-6un6ZJRcJcwT6FA4-140" value="1" style="edgeLabel;resizable=0;html=1;align=right;verticalAlign=top;" connectable="0" vertex="1" parent="jiN-6un6ZJRcJcwT6FA4-138">
          <mxGeometry x="1" relative="1" as="geometry">
            <mxPoint x="26" y="-3" as="offset" />
          </mxGeometry>
        </mxCell>
        <mxCell id="jiN-6un6ZJRcJcwT6FA4-141" value="Relation" style="endArrow=open;html=1;endSize=12;startArrow=diamondThin;startSize=14;startFill=0;edgeStyle=orthogonalEdgeStyle;rounded=0;entryX=0.75;entryY=0;entryDx=0;entryDy=0;exitX=0.5;exitY=0;exitDx=0;exitDy=0;" edge="1" parent="WIyWlLk6GJQsqaUBKTNV-1" source="jiN-6un6ZJRcJcwT6FA4-77" target="jiN-6un6ZJRcJcwT6FA4-30">
          <mxGeometry relative="1" as="geometry">
            <mxPoint x="800" y="500" as="sourcePoint" />
            <mxPoint x="960" y="500" as="targetPoint" />
            <Array as="points">
              <mxPoint x="1060" y="310" />
              <mxPoint x="460" y="310" />
            </Array>
          </mxGeometry>
        </mxCell>
        <mxCell id="jiN-6un6ZJRcJcwT6FA4-142" value="0..n" style="edgeLabel;resizable=0;html=1;align=left;verticalAlign=top;" connectable="0" vertex="1" parent="jiN-6un6ZJRcJcwT6FA4-141">
          <mxGeometry x="-1" relative="1" as="geometry">
            <mxPoint x="10" y="-42" as="offset" />
          </mxGeometry>
        </mxCell>
        <mxCell id="jiN-6un6ZJRcJcwT6FA4-143" value="1" style="edgeLabel;resizable=0;html=1;align=right;verticalAlign=top;" connectable="0" vertex="1" parent="jiN-6un6ZJRcJcwT6FA4-141">
          <mxGeometry x="1" relative="1" as="geometry">
            <mxPoint x="10" y="-40" as="offset" />
          </mxGeometry>
        </mxCell>
        <mxCell id="jiN-6un6ZJRcJcwT6FA4-147" value="Relation" style="endArrow=open;html=1;endSize=12;startArrow=diamondThin;startSize=14;startFill=0;edgeStyle=orthogonalEdgeStyle;rounded=0;entryX=0.5;entryY=0;entryDx=0;entryDy=0;exitX=0.5;exitY=0;exitDx=0;exitDy=0;" edge="1" parent="WIyWlLk6GJQsqaUBKTNV-1" source="jiN-6un6ZJRcJcwT6FA4-128" target="jiN-6un6ZJRcJcwT6FA4-30">
          <mxGeometry relative="1" as="geometry">
            <mxPoint x="800" y="370" as="sourcePoint" />
            <mxPoint x="960" y="370" as="targetPoint" />
            <Array as="points">
              <mxPoint x="1290" y="270" />
              <mxPoint x="420" y="270" />
            </Array>
          </mxGeometry>
        </mxCell>
        <mxCell id="jiN-6un6ZJRcJcwT6FA4-148" value="0..n" style="edgeLabel;resizable=0;html=1;align=left;verticalAlign=top;" connectable="0" vertex="1" parent="jiN-6un6ZJRcJcwT6FA4-147">
          <mxGeometry x="-1" relative="1" as="geometry">
            <mxPoint x="10" y="-40" as="offset" />
          </mxGeometry>
        </mxCell>
        <mxCell id="jiN-6un6ZJRcJcwT6FA4-149" value="1" style="edgeLabel;resizable=0;html=1;align=right;verticalAlign=top;" connectable="0" vertex="1" parent="jiN-6un6ZJRcJcwT6FA4-147">
          <mxGeometry x="1" relative="1" as="geometry">
            <mxPoint x="-10" y="-40" as="offset" />
          </mxGeometry>
        </mxCell>
        <mxCell id="jiN-6un6ZJRcJcwT6FA4-150" value="Relation" style="endArrow=open;html=1;endSize=12;startArrow=diamondThin;startSize=14;startFill=0;edgeStyle=orthogonalEdgeStyle;rounded=0;" edge="1" parent="WIyWlLk6GJQsqaUBKTNV-1">
          <mxGeometry relative="1" as="geometry">
            <mxPoint x="660" y="940" as="sourcePoint" />
            <mxPoint x="390" y="670" as="targetPoint" />
          </mxGeometry>
        </mxCell>
        <mxCell id="jiN-6un6ZJRcJcwT6FA4-151" value="0..n" style="edgeLabel;resizable=0;html=1;align=left;verticalAlign=top;" connectable="0" vertex="1" parent="jiN-6un6ZJRcJcwT6FA4-150">
          <mxGeometry x="-1" relative="1" as="geometry">
            <mxPoint x="-30" y="10" as="offset" />
          </mxGeometry>
        </mxCell>
        <mxCell id="jiN-6un6ZJRcJcwT6FA4-152" value="1" style="edgeLabel;resizable=0;html=1;align=right;verticalAlign=top;" connectable="0" vertex="1" parent="jiN-6un6ZJRcJcwT6FA4-150">
          <mxGeometry x="1" relative="1" as="geometry">
            <mxPoint x="20" y="10" as="offset" />
          </mxGeometry>
        </mxCell>
        <mxCell id="jiN-6un6ZJRcJcwT6FA4-157" value="Relation" style="endArrow=open;html=1;endSize=12;startArrow=diamondThin;startSize=14;startFill=0;edgeStyle=orthogonalEdgeStyle;rounded=0;entryX=0.25;entryY=0;entryDx=0;entryDy=0;exitX=0.5;exitY=0;exitDx=0;exitDy=0;" edge="1" parent="WIyWlLk6GJQsqaUBKTNV-1" source="jiN-6un6ZJRcJcwT6FA4-119" target="jiN-6un6ZJRcJcwT6FA4-30">
          <mxGeometry relative="1" as="geometry">
            <mxPoint x="1150" y="330" as="sourcePoint" />
            <mxPoint x="1310" y="330" as="targetPoint" />
            <Array as="points">
              <mxPoint x="1490" y="210" />
              <mxPoint x="380" y="210" />
            </Array>
          </mxGeometry>
        </mxCell>
        <mxCell id="jiN-6un6ZJRcJcwT6FA4-158" value="0..n" style="edgeLabel;resizable=0;html=1;align=left;verticalAlign=top;" connectable="0" vertex="1" parent="jiN-6un6ZJRcJcwT6FA4-157">
          <mxGeometry x="-1" relative="1" as="geometry">
            <mxPoint x="-30" y="-40" as="offset" />
          </mxGeometry>
        </mxCell>
        <mxCell id="jiN-6un6ZJRcJcwT6FA4-159" value="1" style="edgeLabel;resizable=0;html=1;align=right;verticalAlign=top;" connectable="0" vertex="1" parent="jiN-6un6ZJRcJcwT6FA4-157">
          <mxGeometry x="1" relative="1" as="geometry">
            <mxPoint x="-10" y="-40" as="offset" />
          </mxGeometry>
        </mxCell>
        <mxCell id="jiN-6un6ZJRcJcwT6FA4-160" value="Relation" style="endArrow=open;html=1;endSize=12;startArrow=diamondThin;startSize=14;startFill=0;edgeStyle=orthogonalEdgeStyle;rounded=0;entryX=0.75;entryY=0;entryDx=0;entryDy=0;exitX=0;exitY=0.5;exitDx=0;exitDy=0;" edge="1" parent="WIyWlLk6GJQsqaUBKTNV-1" source="jiN-6un6ZJRcJcwT6FA4-127" target="jiN-6un6ZJRcJcwT6FA4-128">
          <mxGeometry relative="1" as="geometry">
            <mxPoint x="780" y="650" as="sourcePoint" />
            <mxPoint x="940" y="650" as="targetPoint" />
          </mxGeometry>
        </mxCell>
        <mxCell id="jiN-6un6ZJRcJcwT6FA4-161" value="0..n" style="edgeLabel;resizable=0;html=1;align=left;verticalAlign=top;" connectable="0" vertex="1" parent="jiN-6un6ZJRcJcwT6FA4-160">
          <mxGeometry x="-1" relative="1" as="geometry">
            <mxPoint x="-40" as="offset" />
          </mxGeometry>
        </mxCell>
        <mxCell id="jiN-6un6ZJRcJcwT6FA4-162" value="1" style="edgeLabel;resizable=0;html=1;align=right;verticalAlign=top;" connectable="0" vertex="1" parent="jiN-6un6ZJRcJcwT6FA4-160">
          <mxGeometry x="1" relative="1" as="geometry">
            <mxPoint x="20" y="-39" as="offset" />
          </mxGeometry>
        </mxCell>
        <mxCell id="jiN-6un6ZJRcJcwT6FA4-163" value="jmtlist" style="swimlane;fontStyle=1;align=center;verticalAlign=top;childLayout=stackLayout;horizontal=1;startSize=26;horizontalStack=0;resizeParent=1;resizeParentMax=0;resizeLast=0;collapsible=1;marginBottom=0;" vertex="1" parent="WIyWlLk6GJQsqaUBKTNV-1">
          <mxGeometry x="1410" y="1090" width="160" height="112" as="geometry" />
        </mxCell>
        <mxCell id="jiN-6un6ZJRcJcwT6FA4-164" value="+ jmtlist_id(pk): long" style="text;strokeColor=none;fillColor=none;align=left;verticalAlign=top;spacingLeft=4;spacingRight=4;overflow=hidden;rotatable=0;points=[[0,0.5],[1,0.5]];portConstraint=eastwest;" vertex="1" parent="jiN-6un6ZJRcJcwT6FA4-163">
          <mxGeometry y="26" width="160" height="26" as="geometry" />
        </mxCell>
        <mxCell id="jiN-6un6ZJRcJcwT6FA4-165" value="" style="line;strokeWidth=1;fillColor=none;align=left;verticalAlign=middle;spacingTop=-1;spacingLeft=3;spacingRight=3;rotatable=0;labelPosition=right;points=[];portConstraint=eastwest;strokeColor=inherit;" vertex="1" parent="jiN-6un6ZJRcJcwT6FA4-163">
          <mxGeometry y="52" width="160" height="8" as="geometry" />
        </mxCell>
        <mxCell id="jiN-6un6ZJRcJcwT6FA4-166" value="+ store_id: long" style="text;strokeColor=none;fillColor=none;align=left;verticalAlign=top;spacingLeft=4;spacingRight=4;overflow=hidden;rotatable=0;points=[[0,0.5],[1,0.5]];portConstraint=eastwest;" vertex="1" parent="jiN-6un6ZJRcJcwT6FA4-163">
          <mxGeometry y="60" width="160" height="26" as="geometry" />
        </mxCell>
        <mxCell id="jiN-6un6ZJRcJcwT6FA4-167" value="+ jmt_id: long" style="text;strokeColor=none;fillColor=none;align=left;verticalAlign=top;spacingLeft=4;spacingRight=4;overflow=hidden;rotatable=0;points=[[0,0.5],[1,0.5]];portConstraint=eastwest;" vertex="1" parent="jiN-6un6ZJRcJcwT6FA4-163">
          <mxGeometry y="86" width="160" height="26" as="geometry" />
        </mxCell>
        <mxCell id="jiN-6un6ZJRcJcwT6FA4-169" value="Relation" style="endArrow=open;html=1;endSize=12;startArrow=diamondThin;startSize=14;startFill=0;edgeStyle=orthogonalEdgeStyle;rounded=0;entryX=0.506;entryY=0.981;entryDx=0;entryDy=0;entryPerimeter=0;" edge="1" parent="WIyWlLk6GJQsqaUBKTNV-1" source="jiN-6un6ZJRcJcwT6FA4-163" target="jiN-6un6ZJRcJcwT6FA4-135">
          <mxGeometry relative="1" as="geometry">
            <mxPoint x="920" y="1020" as="sourcePoint" />
            <mxPoint x="1080" y="1020" as="targetPoint" />
          </mxGeometry>
        </mxCell>
        <mxCell id="jiN-6un6ZJRcJcwT6FA4-170" value="0..n" style="edgeLabel;resizable=0;html=1;align=left;verticalAlign=top;" connectable="0" vertex="1" parent="jiN-6un6ZJRcJcwT6FA4-169">
          <mxGeometry x="-1" relative="1" as="geometry">
            <mxPoint x="10" y="-30" as="offset" />
          </mxGeometry>
        </mxCell>
        <mxCell id="jiN-6un6ZJRcJcwT6FA4-171" value="1" style="edgeLabel;resizable=0;html=1;align=right;verticalAlign=top;" connectable="0" vertex="1" parent="jiN-6un6ZJRcJcwT6FA4-169">
          <mxGeometry x="1" relative="1" as="geometry">
            <mxPoint x="-11" y="14" as="offset" />
          </mxGeometry>
        </mxCell>
        <mxCell id="jiN-6un6ZJRcJcwT6FA4-172" value="Relation" style="endArrow=open;html=1;endSize=12;startArrow=diamondThin;startSize=14;startFill=0;edgeStyle=orthogonalEdgeStyle;rounded=0;exitX=-0.012;exitY=0.019;exitDx=0;exitDy=0;exitPerimeter=0;entryX=1.013;entryY=1.058;entryDx=0;entryDy=0;entryPerimeter=0;" edge="1" parent="WIyWlLk6GJQsqaUBKTNV-1" source="jiN-6un6ZJRcJcwT6FA4-166" target="jiN-6un6ZJRcJcwT6FA4-117">
          <mxGeometry relative="1" as="geometry">
            <mxPoint x="920" y="1020" as="sourcePoint" />
            <mxPoint x="1080" y="1020" as="targetPoint" />
            <Array as="points">
              <mxPoint x="1320" y="1151" />
              <mxPoint x="1320" y="1120" />
            </Array>
          </mxGeometry>
        </mxCell>
        <mxCell id="jiN-6un6ZJRcJcwT6FA4-173" value="0..n" style="edgeLabel;resizable=0;html=1;align=left;verticalAlign=top;" connectable="0" vertex="1" parent="jiN-6un6ZJRcJcwT6FA4-172">
          <mxGeometry x="-1" relative="1" as="geometry">
            <mxPoint x="-28" as="offset" />
          </mxGeometry>
        </mxCell>
        <mxCell id="jiN-6un6ZJRcJcwT6FA4-174" value="1" style="edgeLabel;resizable=0;html=1;align=right;verticalAlign=top;" connectable="0" vertex="1" parent="jiN-6un6ZJRcJcwT6FA4-172">
          <mxGeometry x="1" relative="1" as="geometry">
            <mxPoint x="31" as="offset" />
          </mxGeometry>
        </mxCell>
        <mxCell id="jiN-6un6ZJRcJcwT6FA4-176" value="menu" style="swimlane;fontStyle=1;align=center;verticalAlign=top;childLayout=stackLayout;horizontal=1;startSize=26;horizontalStack=0;resizeParent=1;resizeParentMax=0;resizeLast=0;collapsible=1;marginBottom=0;" vertex="1" parent="WIyWlLk6GJQsqaUBKTNV-1">
          <mxGeometry x="380" y="1178" width="160" height="138" as="geometry" />
        </mxCell>
        <mxCell id="jiN-6un6ZJRcJcwT6FA4-177" value="+ menu_id(pk): long" style="text;strokeColor=none;fillColor=none;align=left;verticalAlign=top;spacingLeft=4;spacingRight=4;overflow=hidden;rotatable=0;points=[[0,0.5],[1,0.5]];portConstraint=eastwest;" vertex="1" parent="jiN-6un6ZJRcJcwT6FA4-176">
          <mxGeometry y="26" width="160" height="26" as="geometry" />
        </mxCell>
        <mxCell id="jiN-6un6ZJRcJcwT6FA4-180" value="+ menu_name: string" style="text;strokeColor=none;fillColor=none;align=left;verticalAlign=top;spacingLeft=4;spacingRight=4;overflow=hidden;rotatable=0;points=[[0,0.5],[1,0.5]];portConstraint=eastwest;" vertex="1" parent="jiN-6un6ZJRcJcwT6FA4-176">
          <mxGeometry y="52" width="160" height="26" as="geometry" />
        </mxCell>
        <mxCell id="jiN-6un6ZJRcJcwT6FA4-181" value="+ menu_price: string" style="text;strokeColor=none;fillColor=none;align=left;verticalAlign=top;spacingLeft=4;spacingRight=4;overflow=hidden;rotatable=0;points=[[0,0.5],[1,0.5]];portConstraint=eastwest;" vertex="1" parent="jiN-6un6ZJRcJcwT6FA4-176">
          <mxGeometry y="78" width="160" height="26" as="geometry" />
        </mxCell>
        <mxCell id="jiN-6un6ZJRcJcwT6FA4-178" value="" style="line;strokeWidth=1;fillColor=none;align=left;verticalAlign=middle;spacingTop=-1;spacingLeft=3;spacingRight=3;rotatable=0;labelPosition=right;points=[];portConstraint=eastwest;strokeColor=inherit;" vertex="1" parent="jiN-6un6ZJRcJcwT6FA4-176">
          <mxGeometry y="104" width="160" height="8" as="geometry" />
        </mxCell>
        <mxCell id="jiN-6un6ZJRcJcwT6FA4-179" value="+ store_id: long" style="text;strokeColor=none;fillColor=none;align=left;verticalAlign=top;spacingLeft=4;spacingRight=4;overflow=hidden;rotatable=0;points=[[0,0.5],[1,0.5]];portConstraint=eastwest;" vertex="1" parent="jiN-6un6ZJRcJcwT6FA4-176">
          <mxGeometry y="112" width="160" height="26" as="geometry" />
        </mxCell>
        <mxCell id="jiN-6un6ZJRcJcwT6FA4-182" value="Relation" style="endArrow=open;html=1;endSize=12;startArrow=diamondThin;startSize=14;startFill=0;edgeStyle=orthogonalEdgeStyle;rounded=0;exitX=0.5;exitY=0;exitDx=0;exitDy=0;entryX=0;entryY=0.5;entryDx=0;entryDy=0;" edge="1" parent="WIyWlLk6GJQsqaUBKTNV-1" source="jiN-6un6ZJRcJcwT6FA4-176" target="jiN-6un6ZJRcJcwT6FA4-93">
          <mxGeometry relative="1" as="geometry">
            <mxPoint x="450" y="1140" as="sourcePoint" />
            <mxPoint x="610" y="1140" as="targetPoint" />
          </mxGeometry>
        </mxCell>
        <mxCell id="jiN-6un6ZJRcJcwT6FA4-183" value="0..n" style="edgeLabel;resizable=0;html=1;align=left;verticalAlign=top;" connectable="0" vertex="1" parent="jiN-6un6ZJRcJcwT6FA4-182">
          <mxGeometry x="-1" relative="1" as="geometry">
            <mxPoint x="10" y="-38" as="offset" />
          </mxGeometry>
        </mxCell>
        <mxCell id="jiN-6un6ZJRcJcwT6FA4-184" value="1" style="edgeLabel;resizable=0;html=1;align=right;verticalAlign=top;" connectable="0" vertex="1" parent="jiN-6un6ZJRcJcwT6FA4-182">
          <mxGeometry x="1" relative="1" as="geometry">
            <mxPoint x="-27" y="-3" as="offset" />
          </mxGeometry>
        </mxCell>
        <mxCell id="jiN-6un6ZJRcJcwT6FA4-185" value="category" style="swimlane;fontStyle=1;align=center;verticalAlign=top;childLayout=stackLayout;horizontal=1;startSize=26;horizontalStack=0;resizeParent=1;resizeParentMax=0;resizeLast=0;collapsible=1;marginBottom=0;" vertex="1" parent="WIyWlLk6GJQsqaUBKTNV-1">
          <mxGeometry x="1000" y="1311" width="160" height="78" as="geometry" />
        </mxCell>
        <mxCell id="jiN-6un6ZJRcJcwT6FA4-186" value="+ category_id(pk): long" style="text;strokeColor=none;fillColor=none;align=left;verticalAlign=top;spacingLeft=4;spacingRight=4;overflow=hidden;rotatable=0;points=[[0,0.5],[1,0.5]];portConstraint=eastwest;" vertex="1" parent="jiN-6un6ZJRcJcwT6FA4-185">
          <mxGeometry y="26" width="160" height="26" as="geometry" />
        </mxCell>
        <mxCell id="jiN-6un6ZJRcJcwT6FA4-189" value="+ category_name: string" style="text;strokeColor=none;fillColor=none;align=left;verticalAlign=top;spacingLeft=4;spacingRight=4;overflow=hidden;rotatable=0;points=[[0,0.5],[1,0.5]];portConstraint=eastwest;" vertex="1" parent="jiN-6un6ZJRcJcwT6FA4-185">
          <mxGeometry y="52" width="160" height="26" as="geometry" />
        </mxCell>
        <mxCell id="jiN-6un6ZJRcJcwT6FA4-190" value="store_category_list" style="swimlane;fontStyle=1;align=center;verticalAlign=top;childLayout=stackLayout;horizontal=1;startSize=26;horizontalStack=0;resizeParent=1;resizeParentMax=0;resizeLast=0;collapsible=1;marginBottom=0;" vertex="1" parent="WIyWlLk6GJQsqaUBKTNV-1">
          <mxGeometry x="640" y="1300.25" width="250" height="112" as="geometry" />
        </mxCell>
        <mxCell id="jiN-6un6ZJRcJcwT6FA4-191" value="+store_category_list_id(pk): long" style="text;strokeColor=none;fillColor=none;align=left;verticalAlign=top;spacingLeft=4;spacingRight=4;overflow=hidden;rotatable=0;points=[[0,0.5],[1,0.5]];portConstraint=eastwest;" vertex="1" parent="jiN-6un6ZJRcJcwT6FA4-190">
          <mxGeometry y="26" width="250" height="26" as="geometry" />
        </mxCell>
        <mxCell id="jiN-6un6ZJRcJcwT6FA4-192" value="" style="line;strokeWidth=1;fillColor=none;align=left;verticalAlign=middle;spacingTop=-1;spacingLeft=3;spacingRight=3;rotatable=0;labelPosition=right;points=[];portConstraint=eastwest;strokeColor=inherit;" vertex="1" parent="jiN-6un6ZJRcJcwT6FA4-190">
          <mxGeometry y="52" width="250" height="8" as="geometry" />
        </mxCell>
        <mxCell id="jiN-6un6ZJRcJcwT6FA4-193" value="+ store_id: long" style="text;strokeColor=none;fillColor=none;align=left;verticalAlign=top;spacingLeft=4;spacingRight=4;overflow=hidden;rotatable=0;points=[[0,0.5],[1,0.5]];portConstraint=eastwest;" vertex="1" parent="jiN-6un6ZJRcJcwT6FA4-190">
          <mxGeometry y="60" width="250" height="26" as="geometry" />
        </mxCell>
        <mxCell id="jiN-6un6ZJRcJcwT6FA4-194" value="+ category_id: long" style="text;strokeColor=none;fillColor=none;align=left;verticalAlign=top;spacingLeft=4;spacingRight=4;overflow=hidden;rotatable=0;points=[[0,0.5],[1,0.5]];portConstraint=eastwest;" vertex="1" parent="jiN-6un6ZJRcJcwT6FA4-190">
          <mxGeometry y="86" width="250" height="26" as="geometry" />
        </mxCell>
        <mxCell id="jiN-6un6ZJRcJcwT6FA4-198" value="Relation" style="endArrow=open;html=1;endSize=12;startArrow=diamondThin;startSize=14;startFill=0;edgeStyle=orthogonalEdgeStyle;rounded=0;" edge="1" parent="WIyWlLk6GJQsqaUBKTNV-1">
          <mxGeometry relative="1" as="geometry">
            <mxPoint x="750" y="1290" as="sourcePoint" />
            <mxPoint x="750" y="1190" as="targetPoint" />
          </mxGeometry>
        </mxCell>
        <mxCell id="jiN-6un6ZJRcJcwT6FA4-199" value="0..n" style="edgeLabel;resizable=0;html=1;align=left;verticalAlign=top;" connectable="0" vertex="1" parent="jiN-6un6ZJRcJcwT6FA4-198">
          <mxGeometry x="-1" relative="1" as="geometry">
            <mxPoint x="10" y="-30" as="offset" />
          </mxGeometry>
        </mxCell>
        <mxCell id="jiN-6un6ZJRcJcwT6FA4-200" value="1" style="edgeLabel;resizable=0;html=1;align=right;verticalAlign=top;" connectable="0" vertex="1" parent="jiN-6un6ZJRcJcwT6FA4-198">
          <mxGeometry x="1" relative="1" as="geometry">
            <mxPoint x="-10" y="10" as="offset" />
          </mxGeometry>
        </mxCell>
        <mxCell id="jiN-6un6ZJRcJcwT6FA4-201" value="Relation" style="endArrow=open;html=1;endSize=12;startArrow=diamondThin;startSize=14;startFill=0;edgeStyle=orthogonalEdgeStyle;rounded=0;entryX=0;entryY=0.5;entryDx=0;entryDy=0;exitX=1;exitY=0.5;exitDx=0;exitDy=0;" edge="1" parent="WIyWlLk6GJQsqaUBKTNV-1" source="jiN-6un6ZJRcJcwT6FA4-193" target="jiN-6un6ZJRcJcwT6FA4-186">
          <mxGeometry relative="1" as="geometry">
            <mxPoint x="450" y="1180" as="sourcePoint" />
            <mxPoint x="610" y="1180" as="targetPoint" />
          </mxGeometry>
        </mxCell>
        <mxCell id="jiN-6un6ZJRcJcwT6FA4-202" value="0..n" style="edgeLabel;resizable=0;html=1;align=left;verticalAlign=top;" connectable="0" vertex="1" parent="jiN-6un6ZJRcJcwT6FA4-201">
          <mxGeometry x="-1" relative="1" as="geometry" />
        </mxCell>
        <mxCell id="jiN-6un6ZJRcJcwT6FA4-203" value="1" style="edgeLabel;resizable=0;html=1;align=right;verticalAlign=top;" connectable="0" vertex="1" parent="jiN-6un6ZJRcJcwT6FA4-201">
          <mxGeometry x="1" relative="1" as="geometry">
            <mxPoint x="-10" as="offset" />
          </mxGeometry>
        </mxCell>
      </root>
    </mxGraphModel>
  </diagram>
</mxfile>
